<svg width="30" height="52" viewBox="0 0 30 52" fill="none" xmlns="http://www.w3.org/2000/svg">
<path fill-rule="evenodd" clip-rule="evenodd" d="M29.9999 4.43935C30.0003 3.26215 29.6052 2.13261 28.9018 1.30042C28.1988 0.4678 27.2446 0 26.2501 0H3.74986C2.75539 0 1.80159 0.467764 1.09816 1.30042C0.39478 2.13258 0 3.26205 0 4.43935V50.0979C0 50.5548 0.139163 50.9966 0.391563 51.3422C0.643963 51.6877 0.993268 51.9142 1.37527 51.9798C1.75727 52.0459 2.14644 51.9468 2.47179 51.7014L15.0367 42.2106L27.525 51.6986C27.8504 51.9459 28.2399 52.046 28.6223 51.9804C29.0047 51.9152 29.3548 51.6891 29.6076 51.3432C29.8608 50.9976 30 50.5554 30 50.0979L29.9999 4.43935ZM26.7857 4.43935V46.6167L15.9071 38.3509C15.6488 38.1545 15.3485 38.0502 15.0415 38.0497C14.7344 38.0493 14.4338 38.1531 14.175 38.3485L3.21377 46.6267V4.43965C3.21337 4.27114 3.26959 4.10971 3.37007 3.99077C3.47055 3.87182 3.60732 3.80479 3.74927 3.80526H26.2495C26.3918 3.80479 26.5282 3.87182 26.6287 3.99077C26.7292 4.10972 26.7858 4.27114 26.785 4.43965L26.7857 4.43935ZM13.3929 16.4879H9.64318C9.06898 16.4879 8.53828 16.8504 8.25113 17.439C7.96403 18.0281 7.96403 18.7531 8.25113 19.3417C8.53823 19.9303 9.06895 20.2928 9.64318 20.2928H13.3929V24.732C13.3929 25.4117 13.6992 26.0394 14.1964 26.3793C14.6936 26.7192 15.3065 26.7192 15.8037 26.3793C16.301 26.0395 16.6072 25.4117 16.6072 24.732V20.2928H20.3574C20.9312 20.2928 21.4619 19.9303 21.749 19.3417C22.0361 18.7531 22.0361 18.0281 21.749 17.439C21.4619 16.8504 20.9312 16.4879 20.3574 16.4879H16.6072V12.0491C16.6072 11.3695 16.301 10.7412 15.8037 10.4013C15.3065 10.0614 14.6936 10.0615 14.1964 10.4013C13.6992 10.7412 13.3929 11.3694 13.3929 12.0491V16.4879Z" fill="#ECE9D2"/>
</svg>
