<svg width="450" height="117" viewBox="0 0 450 117" fill="none" xmlns="http://www.w3.org/2000/svg">
<path fill-rule="evenodd" clip-rule="evenodd" d="M66.9998 9.98853C67.0007 7.33984 66.1182 4.79838 64.5473 2.92595C62.9773 1.05255 60.8463 0 58.6251 0H8.3747C6.15371 0 4.02355 1.05247 2.45257 2.92595C0.881676 4.7983 0 7.33962 0 9.98853V112.72C0 113.748 0.310798 114.742 0.874491 115.52C1.43818 116.297 2.2183 116.807 3.07143 116.955C3.92456 117.103 4.79371 116.88 5.52034 116.328L33.5819 94.9739L61.4725 116.322C62.1991 116.878 63.0692 117.103 63.9232 116.956C64.7772 116.809 65.5591 116.301 66.1237 115.522C66.6892 114.745 67 113.75 67 112.72L66.9998 9.98853ZM59.8213 9.98853V104.888L35.5259 86.2895C34.9489 85.8477 34.2783 85.6129 33.5926 85.6119C32.9069 85.6108 32.2354 85.8445 31.6575 86.2841L7.17741 104.91V9.98921C7.17652 9.61007 7.30208 9.24684 7.52649 8.97923C7.7509 8.7116 8.05635 8.56079 8.37337 8.56185H58.6238C58.9417 8.56078 59.2463 8.71159 59.4707 8.97923C59.6951 9.24686 59.8216 9.61007 59.8198 9.98921L59.8213 9.98853ZM29.9109 37.0978H21.5364C20.2541 37.0978 19.0688 37.9134 18.4275 39.2377C17.7863 40.5631 17.7863 42.1944 18.4275 43.5187C19.0687 44.8431 20.254 45.6587 21.5364 45.6587H29.9109V55.647C29.9109 57.1763 30.5948 58.5887 31.7053 59.3535C32.8158 60.1183 34.1846 60.1181 35.295 59.3535C36.4055 58.5888 37.0894 57.1763 37.0894 55.647V45.6587H45.4648C46.7463 45.6587 47.9315 44.8431 48.5728 43.5187C49.214 42.1944 49.214 40.5631 48.5728 39.2377C47.9316 37.9134 46.7463 37.0978 45.4648 37.0978H37.0894V27.1106C37.0894 25.5813 36.4055 24.1678 35.295 23.403C34.1845 22.6382 32.8158 22.6383 31.7053 23.403C30.5948 24.1676 29.9109 25.5812 29.9109 27.1106V37.0978Z" fill="#1C1C21"/>
<path d="M83.3 97V16H91L114 69.8V16H123.4V97H116.2L92.9 41.7V97H83.3ZM151.132 97.8C146.865 97.8 143.499 96.9333 141.032 95.2C138.565 93.4667 136.799 91 135.732 87.8C134.732 84.6 134.232 80.8333 134.232 76.5V59.7C134.232 55.3667 134.732 51.6 135.732 48.4C136.799 45.2 138.565 42.7333 141.032 41C143.499 39.2667 146.865 38.4 151.132 38.4C155.399 38.4 158.732 39.2667 161.132 41C163.599 42.7333 165.332 45.2 166.332 48.4C167.399 51.6 167.932 55.3667 167.932 59.7V76.5C167.932 80.8333 167.399 84.6 166.332 87.8C165.332 91 163.599 93.4667 161.132 95.2C158.732 96.9333 155.399 97.8 151.132 97.8ZM151.132 89.9C153.199 89.9 154.632 89.3 155.432 88.1C156.299 86.9 156.799 85.3333 156.932 83.4C157.132 81.4 157.232 79.3333 157.232 77.2V59.1C157.232 56.9 157.132 54.8333 156.932 52.9C156.799 50.9667 156.299 49.4 155.432 48.2C154.632 46.9333 153.199 46.3 151.132 46.3C149.065 46.3 147.599 46.9333 146.732 48.2C145.865 49.4 145.332 50.9667 145.132 52.9C144.999 54.8333 144.932 56.9 144.932 59.1V77.2C144.932 79.3333 144.999 81.4 145.132 83.4C145.332 85.3333 145.865 86.9 146.732 88.1C147.599 89.3 149.065 89.9 151.132 89.9ZM193.113 97.8C190.113 97.8 187.679 97.2333 185.813 96.1C184.013 94.9667 182.679 93.3667 181.813 91.3C181.013 89.2333 180.613 86.8 180.613 84V46.3H174.513V39.2H180.613V22.3H191.313V39.2H200.613V46.3H191.313V83.3C191.313 85.5667 191.679 87.2 192.413 88.2C193.146 89.1333 194.546 89.6 196.613 89.6C197.146 89.6 197.746 89.5667 198.413 89.5C199.146 89.4333 199.846 89.3667 200.513 89.3V97.2C199.179 97.4 197.946 97.5333 196.813 97.6C195.679 97.7333 194.446 97.8 193.113 97.8ZM232.226 97V16H263.526V24.1H243.526V51.1H259.026V59.1H243.526V97H232.226ZM286.288 97.8C282.022 97.8 278.655 96.9333 276.188 95.2C273.722 93.4667 271.955 91 270.888 87.8C269.888 84.6 269.388 80.8333 269.388 76.5V59.7C269.388 55.3667 269.888 51.6 270.888 48.4C271.955 45.2 273.722 42.7333 276.188 41C278.655 39.2667 282.022 38.4 286.288 38.4C290.555 38.4 293.888 39.2667 296.288 41C298.755 42.7333 300.488 45.2 301.488 48.4C302.555 51.6 303.088 55.3667 303.088 59.7V76.5C303.088 80.8333 302.555 84.6 301.488 87.8C300.488 91 298.755 93.4667 296.288 95.2C293.888 96.9333 290.555 97.8 286.288 97.8ZM286.288 89.9C288.355 89.9 289.788 89.3 290.588 88.1C291.455 86.9 291.955 85.3333 292.088 83.4C292.288 81.4 292.388 79.3333 292.388 77.2V59.1C292.388 56.9 292.288 54.8333 292.088 52.9C291.955 50.9667 291.455 49.4 290.588 48.2C289.788 46.9333 288.355 46.3 286.288 46.3C284.222 46.3 282.755 46.9333 281.888 48.2C281.022 49.4 280.488 50.9667 280.288 52.9C280.155 54.8333 280.088 56.9 280.088 59.1V77.2C280.088 79.3333 280.155 81.4 280.288 83.4C280.488 85.3333 281.022 86.9 281.888 88.1C282.755 89.3 284.222 89.9 286.288 89.9ZM321.169 97.8C318.902 97.8 317.135 97.2 315.869 96C314.602 94.8 313.702 93.3 313.169 91.5C312.702 89.7 312.469 87.8667 312.469 86V39.2H323.169V82.8C323.169 84.8667 323.469 86.5 324.069 87.7C324.669 88.8333 325.902 89.4 327.769 89.4C328.969 89.4 330.202 89.0667 331.469 88.4C332.802 87.6667 334.069 86.8 335.269 85.8V39.2H345.969V97H335.269V91.3C333.402 93.1 331.269 94.6333 328.869 95.9C326.535 97.1667 323.969 97.8 321.169 97.8ZM356.912 97V39.2H367.612V44.9C369.545 43.1 371.678 41.5667 374.012 40.3C376.345 39.0333 378.912 38.4 381.712 38.4C384.045 38.4 385.812 39 387.012 40.2C388.278 41.4 389.145 42.9 389.612 44.7C390.145 46.5 390.412 48.3333 390.412 50.2V97H379.712V53.3C379.712 51.2333 379.412 49.6333 378.812 48.5C378.212 47.3667 376.978 46.8 375.112 46.8C373.912 46.8 372.645 47.1667 371.312 47.9C370.045 48.5667 368.812 49.4 367.612 50.4V97H356.912ZM414.257 97.8C409.39 97.8 405.757 96.0333 403.357 92.5C400.957 88.9 399.757 82.8333 399.757 74.3V63.1C399.757 58.7 400.124 54.6333 400.857 50.9C401.59 47.1 402.957 44.0667 404.957 41.8C407.024 39.5333 410.024 38.4 413.957 38.4C415.89 38.4 417.657 38.8333 419.257 39.7C420.857 40.5667 422.29 41.6333 423.557 42.9V16H434.257V97H423.557V93.3C422.29 94.6333 420.89 95.7333 419.357 96.6C417.89 97.4 416.19 97.8 414.257 97.8ZM416.957 89.4C417.957 89.4 419.024 89.2333 420.157 88.9C421.29 88.5 422.424 87.9333 423.557 87.2V49.3C422.624 48.6333 421.59 48.0667 420.457 47.6C419.324 47.0667 418.09 46.8 416.757 46.8C414.29 46.8 412.624 48 411.757 50.4C410.89 52.7333 410.457 55.5667 410.457 58.9V75.2C410.457 77.8667 410.59 80.3 410.857 82.5C411.19 84.6333 411.824 86.3333 412.757 87.6C413.69 88.8 415.09 89.4 416.957 89.4Z" fill="#1C1C21"/>
</svg>
